<svg width="17" height="31" viewBox="0 0 17 31" fill="none" xmlns="http://www.w3.org/2000/svg">
<path d="M0.659158 3.93037C0.242345 3.49737 0.0085 2.91245 0.0085 2.30287C0.0085 1.69329 0.242345 1.10837 0.659158 0.675371C0.864687 0.461412 1.10941 0.29155 1.37915 0.175622C1.64889 0.0596927 1.93829 0 2.2306 0C2.5229 0 2.8123 0.0596927 3.08204 0.175622C3.35178 0.29155 3.5965 0.461412 3.80203 0.675371L16.3502 13.6822C16.767 14.1152 17.0008 14.7002 17.0008 15.3097C17.0008 15.9193 16.767 16.5042 16.3502 16.9372L3.79141 29.9529C3.58591 30.1665 3.34133 30.3361 3.07178 30.4518C2.80224 30.5675 2.51308 30.6271 2.22103 30.6271C1.92898 30.6271 1.63983 30.5675 1.37028 30.4518C1.10074 30.3361 0.85615 30.1665 0.650658 29.9529C0.233845 29.5199 0 28.935 0 28.3254C0 27.7158 0.233845 27.1309 0.650658 26.6979L11.6369 15.3097L0.659158 3.93037Z" fill="white"/>
</svg>