<svg width="17" height="31" viewBox="0 0 17 31" fill="none" xmlns="http://www.w3.org/2000/svg">
<path d="M16.3413 26.8838C16.7581 27.3167 16.992 27.9017 16.992 28.5113C16.992 29.1208 16.7581 29.7058 16.3413 30.1388C16.1358 30.3527 15.8911 30.5226 15.6213 30.6385C15.3516 30.7544 15.0622 30.8141 14.7699 30.8141C14.4776 30.8141 14.1882 30.7544 13.9184 30.6385C13.6487 30.5226 13.404 30.3527 13.1985 30.1388L0.650331 17.1319C0.233519 16.6989 -0.000326157 16.114 -0.000326157 15.5044C-0.000326157 14.8948 0.233519 14.3099 0.650331 13.8769L13.2091 0.86125C13.4146 0.647621 13.6592 0.478039 13.9287 0.362307C14.1982 0.246572 14.4874 0.186985 14.7795 0.186985C15.0715 0.186985 15.3607 0.246572 15.6302 0.362307C15.8998 0.478039 16.1443 0.647621 16.3498 0.86125C16.7666 1.29425 17.0005 1.87917 17.0005 2.48875C17.0005 3.09833 16.7666 3.68325 16.3498 4.11625L5.36358 15.5044L16.3413 26.8838Z" fill="white"/>
</svg>
