<svg width="16" height="16" viewBox="0 0 16 16" fill="none" xmlns="http://www.w3.org/2000/svg">
<path d="M9.333 6.667H14.667C15.0205 6.667 15.3596 6.80744 15.6096 7.05743C15.8596 7.30741 16 7.64647 16 8C16 8.35353 15.8596 8.69259 15.6096 8.94257C15.3596 9.19256 15.0205 9.333 14.667 9.333H9.333V14.667C9.333 15.0205 9.19256 15.3596 8.94257 15.6096C8.69259 15.8596 8.35353 16 8 16C7.64647 16 7.30741 15.8596 7.05743 15.6096C6.80744 15.3596 6.667 15.0205 6.667 14.667V9.333H1.333C0.979467 9.333 0.640413 9.19256 0.390427 8.94257C0.140441 8.69259 0 8.35353 0 8C0 7.64647 0.140441 7.30741 0.390427 7.05743C0.640413 6.80744 0.979467 6.667 1.333 6.667H6.667V1.333C6.667 0.979467 6.80744 0.640413 7.05743 0.390427C7.30741 0.140441 7.64647 0 8 0C8.35353 0 8.69259 0.140441 8.94257 0.390427C9.19256 0.640413 9.333 0.979467 9.333 1.333V6.667Z" fill="white"/>
</svg>
